<?xml version="1.0" standalone="no"?>
<!DOCTYPE svg PUBLIC "-//W3C//DTD SVG 20010904//EN"
 "http://www.w3.org/TR/2001/REC-SVG-20010904/DTD/svg10.dtd">
<svg version="1.0" xmlns="http://www.w3.org/2000/svg"
 width="150.000000pt" height="150.000000pt" viewBox="0 0 150.000000 150.000000"
 preserveAspectRatio="xMidYMid meet">
<metadata>
Created by potrace 1.11, written by Peter Selinger 2001-2013
</metadata>
<g transform="translate(0.000000,150.000000) scale(0.100000,-0.100000)"
fill="#000000" stroke="none">
<path d="M0 750 l0 -750 750 0 750 0 0 750 0 750 -750 0 -750 0 0 -750z m690
340 l0 -80 60 0 60 0 0 80 0 80 180 0 180 0 0 -100 0 -100 -80 0 -80 0 0 -60
0 -60 160 0 160 0 0 -100 0 -100 -160 0 -160 0 0 -60 0 -60 80 0 80 0 0 -100
0 -100 -180 0 -180 0 0 80 0 80 -60 0 -60 0 0 -80 0 -80 -180 0 -180 0 0 100
0 100 80 0 80 0 0 60 0 60 -160 0 -160 0 0 100 0 100 160 0 160 0 0 60 0 60
-80 0 -80 0 0 100 0 100 180 0 180 0 0 -80z"/>
</g>
</svg>
